<?xml version="1.0" encoding="utf-8"?>
<!-- Generator: Adobe Illustrator 26.0.0, SVG Export Plug-In . SVG Version: 6.00 Build 0)  -->
<svg version="1.1" id="Calque_1" xmlns="http://www.w3.org/2000/svg" xmlns:xlink="http://www.w3.org/1999/xlink" x="0px" y="0px"
	 viewBox="0 0 11 11" style="enable-background:new 0 0 11 11;" xml:space="preserve">
<style type="text/css">
	.st0{fill:#5457B6;}
</style>
<path class="st0" d="M6.3,10.9c0.1,0,0.3-0.1,0.4-0.1c0.1-0.1,0.1-0.2,0.1-0.4V7h3.3c0.1,0,0.3-0.1,0.4-0.1c0.1-0.1,0.1-0.2,0.1-0.4
	V5.3c0-0.1-0.1-0.3-0.1-0.4c-0.1-0.1-0.2-0.2-0.4-0.1H6.8V1.4c0-0.1-0.1-0.3-0.1-0.4C6.6,0.9,6.5,0.9,6.3,0.9H4.9
	C4.8,0.9,4.7,0.9,4.6,1C4.5,1.1,4.4,1.3,4.4,1.4v3.4H1.1c-0.1,0-0.3,0.1-0.4,0.2C0.6,5,0.6,5.1,0.6,5.3v1.2c0,0.1,0.1,0.3,0.1,0.4
	C0.8,7,0.9,7,1.1,7h3.3v3.4c0,0.1,0.1,0.3,0.2,0.4c0.1,0.1,0.2,0.1,0.4,0.1L6.3,10.9L6.3,10.9z"/>
</svg>
